<mxfile host="www.draw.io" modified="2019-10-25T01:51:32.209Z" agent="Mozilla/5.0 (Windows NT 10.0; Win64; x64) AppleWebKit/537.36 (KHTML, like Gecko) Chrome/76.0.3809.132 Safari/537.36 OPR/63.0.3368.107" etag="EJaRw7BQRBdHes8M5hSt" version="12.1.5" type="github" pages="4">
  <diagram id="B0yvF3y02Yiysx_FKzZP" name="Page-1">
    <mxGraphModel dx="1128" dy="719" grid="1" gridSize="10" guides="1" tooltips="1" connect="1" arrows="1" fold="1" page="1" pageScale="1" pageWidth="1100" pageHeight="850" math="0" shadow="0">
      <root>
        <mxCell id="0"/>
        <mxCell id="1" parent="0"/>
        <mxCell id="l97msg9wnEneZUgjp6Aw-18" style="rounded=1;orthogonalLoop=1;jettySize=auto;html=1;entryX=0.513;entryY=1.038;entryDx=0;entryDy=0;entryPerimeter=0;orthogonal=1;exitX=0.5;exitY=0;exitDx=0;exitDy=0;endArrow=block;endFill=0;endSize=12;dashed=1;" parent="1" source="l97msg9wnEneZUgjp6Aw-2" target="l97msg9wnEneZUgjp6Aw-11" edge="1">
          <mxGeometry relative="1" as="geometry">
            <mxPoint x="580" y="180" as="targetPoint"/>
          </mxGeometry>
        </mxCell>
        <mxCell id="l97msg9wnEneZUgjp6Aw-19" style="orthogonalLoop=1;jettySize=auto;html=1;orthogonal=1;exitX=0.5;exitY=0;exitDx=0;exitDy=0;endArrow=block;endFill=0;endSize=12;rounded=1;dashed=1;entryX=0.5;entryY=1.115;entryDx=0;entryDy=0;entryPerimeter=0;" parent="1" source="l97msg9wnEneZUgjp6Aw-2" target="l97msg9wnEneZUgjp6Aw-17" edge="1">
          <mxGeometry relative="1" as="geometry">
            <mxPoint x="810" y="110" as="targetPoint"/>
          </mxGeometry>
        </mxCell>
        <mxCell id="l97msg9wnEneZUgjp6Aw-2" value="AbstractQuad" style="swimlane;fontStyle=1;align=center;verticalAlign=top;childLayout=stackLayout;horizontal=1;startSize=26;horizontalStack=0;resizeParent=1;resizeParentMax=0;resizeLast=0;collapsible=1;marginBottom=0;" parent="1" vertex="1">
          <mxGeometry x="720" y="190" width="160" height="138" as="geometry"/>
        </mxCell>
        <mxCell id="l97msg9wnEneZUgjp6Aw-3" value="+ field: type" style="text;strokeColor=none;fillColor=none;align=left;verticalAlign=top;spacingLeft=4;spacingRight=4;overflow=hidden;rotatable=0;points=[[0,0.5],[1,0.5]];portConstraint=eastwest;" parent="l97msg9wnEneZUgjp6Aw-2" vertex="1">
          <mxGeometry y="26" width="160" height="26" as="geometry"/>
        </mxCell>
        <mxCell id="l97msg9wnEneZUgjp6Aw-4" value="" style="line;strokeWidth=1;fillColor=none;align=left;verticalAlign=middle;spacingTop=-1;spacingLeft=3;spacingRight=3;rotatable=0;labelPosition=right;points=[];portConstraint=eastwest;" parent="l97msg9wnEneZUgjp6Aw-2" vertex="1">
          <mxGeometry y="52" width="160" height="8" as="geometry"/>
        </mxCell>
        <mxCell id="l97msg9wnEneZUgjp6Aw-5" value="+ perimeter()" style="text;strokeColor=none;fillColor=none;align=left;verticalAlign=top;spacingLeft=4;spacingRight=4;overflow=hidden;rotatable=0;points=[[0,0.5],[1,0.5]];portConstraint=eastwest;" parent="l97msg9wnEneZUgjp6Aw-2" vertex="1">
          <mxGeometry y="60" width="160" height="26" as="geometry"/>
        </mxCell>
        <mxCell id="l97msg9wnEneZUgjp6Aw-21" value="+ area()" style="text;strokeColor=none;fillColor=none;align=left;verticalAlign=top;spacingLeft=4;spacingRight=4;overflow=hidden;rotatable=0;points=[[0,0.5],[1,0.5]];portConstraint=eastwest;" parent="l97msg9wnEneZUgjp6Aw-2" vertex="1">
          <mxGeometry y="86" width="160" height="26" as="geometry"/>
        </mxCell>
        <mxCell id="l97msg9wnEneZUgjp6Aw-20" value="# getSides() : Integer[]" style="text;strokeColor=none;fillColor=none;align=left;verticalAlign=top;spacingLeft=4;spacingRight=4;overflow=hidden;rotatable=0;points=[[0,0.5],[1,0.5]];portConstraint=eastwest;" parent="l97msg9wnEneZUgjp6Aw-2" vertex="1">
          <mxGeometry y="112" width="160" height="26" as="geometry"/>
        </mxCell>
        <mxCell id="l97msg9wnEneZUgjp6Aw-30" style="rounded=1;orthogonalLoop=1;jettySize=auto;html=1;entryX=0.5;entryY=1;entryDx=0;entryDy=0;orthogonal=1;endArrow=block;endFill=0;endSize=12;" parent="1" source="l97msg9wnEneZUgjp6Aw-23" target="l97msg9wnEneZUgjp6Aw-2" edge="1">
          <mxGeometry relative="1" as="geometry">
            <mxPoint x="643.76" y="425.716" as="targetPoint"/>
          </mxGeometry>
        </mxCell>
        <mxCell id="l97msg9wnEneZUgjp6Aw-23" value="AbstractSymmetricQuad" style="swimlane;fontStyle=1;align=center;verticalAlign=top;childLayout=stackLayout;horizontal=1;startSize=26;horizontalStack=0;resizeParent=1;resizeParentMax=0;resizeLast=0;collapsible=1;marginBottom=0;" parent="1" vertex="1">
          <mxGeometry x="720" y="387" width="160" height="112" as="geometry"/>
        </mxCell>
        <mxCell id="l97msg9wnEneZUgjp6Aw-24" value="- field: type" style="text;strokeColor=none;fillColor=none;align=left;verticalAlign=top;spacingLeft=4;spacingRight=4;overflow=hidden;rotatable=0;points=[[0,0.5],[1,0.5]];portConstraint=eastwest;" parent="l97msg9wnEneZUgjp6Aw-23" vertex="1">
          <mxGeometry y="26" width="160" height="26" as="geometry"/>
        </mxCell>
        <mxCell id="l97msg9wnEneZUgjp6Aw-25" value="" style="line;strokeWidth=1;fillColor=none;align=left;verticalAlign=middle;spacingTop=-1;spacingLeft=3;spacingRight=3;rotatable=0;labelPosition=right;points=[];portConstraint=eastwest;" parent="l97msg9wnEneZUgjp6Aw-23" vertex="1">
          <mxGeometry y="52" width="160" height="8" as="geometry"/>
        </mxCell>
        <mxCell id="l97msg9wnEneZUgjp6Aw-70" value="+ getWidth() : integer" style="text;strokeColor=none;fillColor=none;align=left;verticalAlign=top;spacingLeft=4;spacingRight=4;overflow=hidden;rotatable=0;points=[[0,0.5],[1,0.5]];portConstraint=eastwest;" parent="l97msg9wnEneZUgjp6Aw-23" vertex="1">
          <mxGeometry y="60" width="160" height="26" as="geometry"/>
        </mxCell>
        <mxCell id="l97msg9wnEneZUgjp6Aw-31" value="+ getHeight() : integer" style="text;strokeColor=none;fillColor=none;align=left;verticalAlign=top;spacingLeft=4;spacingRight=4;overflow=hidden;rotatable=0;points=[[0,0.5],[1,0.5]];portConstraint=eastwest;" parent="l97msg9wnEneZUgjp6Aw-23" vertex="1">
          <mxGeometry y="86" width="160" height="26" as="geometry"/>
        </mxCell>
        <mxCell id="l97msg9wnEneZUgjp6Aw-10" value="«interface»&lt;br&gt;&lt;b&gt;DrawableShape&lt;/b&gt;" style="swimlane;fontStyle=1;align=center;verticalAlign=top;childLayout=stackLayout;horizontal=1;startSize=40;horizontalStack=0;resizeParent=1;resizeParentMax=0;resizeLast=0;collapsible=1;marginBottom=0;html=1;collapsible=1;swimlaneLine=1;" parent="1" vertex="1">
          <mxGeometry x="600" y="64" width="160" height="66" as="geometry"/>
        </mxCell>
        <mxCell id="l97msg9wnEneZUgjp6Aw-11" value="+ draw()" style="text;strokeColor=none;fillColor=none;align=left;verticalAlign=top;spacingLeft=4;spacingRight=4;overflow=hidden;rotatable=0;points=[[0,0.5],[1,0.5]];portConstraint=eastwest;" parent="l97msg9wnEneZUgjp6Aw-10" vertex="1">
          <mxGeometry y="40" width="160" height="26" as="geometry"/>
        </mxCell>
        <mxCell id="l97msg9wnEneZUgjp6Aw-14" value="«interface»&lt;br&gt;&lt;b&gt;CalcableShape&lt;/b&gt;" style="swimlane;fontStyle=1;align=center;verticalAlign=top;childLayout=stackLayout;horizontal=1;startSize=40;horizontalStack=0;resizeParent=1;resizeParentMax=0;resizeLast=0;collapsible=1;marginBottom=0;html=1;collapsible=1;swimlaneLine=1;" parent="1" vertex="1">
          <mxGeometry x="830" y="28" width="160" height="92" as="geometry"/>
        </mxCell>
        <mxCell id="l97msg9wnEneZUgjp6Aw-16" value="+ perimeter()" style="text;strokeColor=none;fillColor=none;align=left;verticalAlign=top;spacingLeft=4;spacingRight=4;overflow=hidden;rotatable=0;points=[[0,0.5],[1,0.5]];portConstraint=eastwest;" parent="l97msg9wnEneZUgjp6Aw-14" vertex="1">
          <mxGeometry y="40" width="160" height="26" as="geometry"/>
        </mxCell>
        <mxCell id="l97msg9wnEneZUgjp6Aw-17" value="+ area()" style="text;strokeColor=none;fillColor=none;align=left;verticalAlign=top;spacingLeft=4;spacingRight=4;overflow=hidden;rotatable=0;points=[[0,0.5],[1,0.5]];portConstraint=eastwest;" parent="l97msg9wnEneZUgjp6Aw-14" vertex="1">
          <mxGeometry y="66" width="160" height="26" as="geometry"/>
        </mxCell>
        <mxCell id="l97msg9wnEneZUgjp6Aw-68" style="rounded=1;orthogonalLoop=1;jettySize=auto;html=1;entryX=0.457;entryY=1;entryDx=0;entryDy=0;entryPerimeter=0;orthogonal=1;exitX=0.5;exitY=0;exitDx=0;exitDy=0;endArrow=block;endFill=0;endSize=12;" parent="1" source="l97msg9wnEneZUgjp6Aw-58" target="l97msg9wnEneZUgjp6Aw-31" edge="1">
          <mxGeometry relative="1" as="geometry"/>
        </mxCell>
        <mxCell id="l97msg9wnEneZUgjp6Aw-58" value="Square" style="swimlane;fontStyle=1;align=center;verticalAlign=top;childLayout=stackLayout;horizontal=1;startSize=26;horizontalStack=0;resizeParent=1;resizeParentMax=0;resizeLast=0;collapsible=1;marginBottom=0;" parent="1" vertex="1">
          <mxGeometry x="600" y="611" width="160" height="86" as="geometry"/>
        </mxCell>
        <mxCell id="l97msg9wnEneZUgjp6Aw-59" value="- sideLength : integer" style="text;strokeColor=none;fillColor=none;align=left;verticalAlign=top;spacingLeft=4;spacingRight=4;overflow=hidden;rotatable=0;points=[[0,0.5],[1,0.5]];portConstraint=eastwest;" parent="l97msg9wnEneZUgjp6Aw-58" vertex="1">
          <mxGeometry y="26" width="160" height="26" as="geometry"/>
        </mxCell>
        <mxCell id="l97msg9wnEneZUgjp6Aw-60" value="" style="line;strokeWidth=1;fillColor=none;align=left;verticalAlign=middle;spacingTop=-1;spacingLeft=3;spacingRight=3;rotatable=0;labelPosition=right;points=[];portConstraint=eastwest;" parent="l97msg9wnEneZUgjp6Aw-58" vertex="1">
          <mxGeometry y="52" width="160" height="8" as="geometry"/>
        </mxCell>
        <mxCell id="l97msg9wnEneZUgjp6Aw-62" value="+ ..." style="text;strokeColor=none;fillColor=none;align=left;verticalAlign=top;spacingLeft=4;spacingRight=4;overflow=hidden;rotatable=0;points=[[0,0.5],[1,0.5]];portConstraint=eastwest;" parent="l97msg9wnEneZUgjp6Aw-58" vertex="1">
          <mxGeometry y="60" width="160" height="26" as="geometry"/>
        </mxCell>
        <mxCell id="l97msg9wnEneZUgjp6Aw-69" style="rounded=1;orthogonalLoop=1;jettySize=auto;html=1;entryX=0.546;entryY=1;entryDx=0;entryDy=0;entryPerimeter=0;orthogonal=1;exitX=0.5;exitY=0;exitDx=0;exitDy=0;endArrow=block;endFill=0;endSize=12;" parent="1" source="l97msg9wnEneZUgjp6Aw-63" target="l97msg9wnEneZUgjp6Aw-31" edge="1">
          <mxGeometry relative="1" as="geometry">
            <mxPoint x="730" y="550" as="targetPoint"/>
          </mxGeometry>
        </mxCell>
        <mxCell id="l97msg9wnEneZUgjp6Aw-63" value="Rectangle" style="swimlane;fontStyle=1;align=center;verticalAlign=top;childLayout=stackLayout;horizontal=1;startSize=26;horizontalStack=0;resizeParent=1;resizeParentMax=0;resizeLast=0;collapsible=1;marginBottom=0;" parent="1" vertex="1">
          <mxGeometry x="820" y="607" width="160" height="112" as="geometry"/>
        </mxCell>
        <mxCell id="l97msg9wnEneZUgjp6Aw-64" value="- width : integer" style="text;strokeColor=none;fillColor=none;align=left;verticalAlign=top;spacingLeft=4;spacingRight=4;overflow=hidden;rotatable=0;points=[[0,0.5],[1,0.5]];portConstraint=eastwest;" parent="l97msg9wnEneZUgjp6Aw-63" vertex="1">
          <mxGeometry y="26" width="160" height="26" as="geometry"/>
        </mxCell>
        <mxCell id="z4mqVL_0eLTdSEAU9un8-13" value="- height : integer" style="text;strokeColor=none;fillColor=none;align=left;verticalAlign=top;spacingLeft=4;spacingRight=4;overflow=hidden;rotatable=0;points=[[0,0.5],[1,0.5]];portConstraint=eastwest;" parent="l97msg9wnEneZUgjp6Aw-63" vertex="1">
          <mxGeometry y="52" width="160" height="26" as="geometry"/>
        </mxCell>
        <mxCell id="l97msg9wnEneZUgjp6Aw-65" value="" style="line;strokeWidth=1;fillColor=none;align=left;verticalAlign=middle;spacingTop=-1;spacingLeft=3;spacingRight=3;rotatable=0;labelPosition=right;points=[];portConstraint=eastwest;" parent="l97msg9wnEneZUgjp6Aw-63" vertex="1">
          <mxGeometry y="78" width="160" height="8" as="geometry"/>
        </mxCell>
        <mxCell id="l97msg9wnEneZUgjp6Aw-67" value="+ ..." style="text;strokeColor=none;fillColor=none;align=left;verticalAlign=top;spacingLeft=4;spacingRight=4;overflow=hidden;rotatable=0;points=[[0,0.5],[1,0.5]];portConstraint=eastwest;" parent="l97msg9wnEneZUgjp6Aw-63" vertex="1">
          <mxGeometry y="86" width="160" height="26" as="geometry"/>
        </mxCell>
        <mxCell id="z4mqVL_0eLTdSEAU9un8-1" value="«interface»&lt;br&gt;&lt;b&gt;Interface&lt;/b&gt;" style="swimlane;fontStyle=1;align=center;verticalAlign=top;childLayout=stackLayout;horizontal=1;startSize=40;horizontalStack=0;resizeParent=1;resizeParentMax=0;resizeLast=0;collapsible=1;marginBottom=0;html=1;collapsible=1;swimlaneLine=1;" parent="1" vertex="1">
          <mxGeometry x="260" y="201" width="160" height="66" as="geometry"/>
        </mxCell>
        <mxCell id="z4mqVL_0eLTdSEAU9un8-2" value="+ method(type) : type" style="text;strokeColor=none;fillColor=none;align=left;verticalAlign=top;spacingLeft=4;spacingRight=4;overflow=hidden;rotatable=0;points=[[0,0.5],[1,0.5]];portConstraint=eastwest;" parent="z4mqVL_0eLTdSEAU9un8-1" vertex="1">
          <mxGeometry y="40" width="160" height="26" as="geometry"/>
        </mxCell>
        <mxCell id="z4mqVL_0eLTdSEAU9un8-3" value="Classname" style="swimlane;fontStyle=1;align=center;verticalAlign=top;childLayout=stackLayout;horizontal=1;startSize=26;horizontalStack=0;resizeParent=1;resizeParentMax=0;resizeLast=0;collapsible=1;marginBottom=0;" parent="1" vertex="1">
          <mxGeometry x="80" y="199" width="160" height="86" as="geometry"/>
        </mxCell>
        <mxCell id="z4mqVL_0eLTdSEAU9un8-4" value="- field: type" style="text;strokeColor=none;fillColor=none;align=left;verticalAlign=top;spacingLeft=4;spacingRight=4;overflow=hidden;rotatable=0;points=[[0,0.5],[1,0.5]];portConstraint=eastwest;" parent="z4mqVL_0eLTdSEAU9un8-3" vertex="1">
          <mxGeometry y="26" width="160" height="26" as="geometry"/>
        </mxCell>
        <mxCell id="z4mqVL_0eLTdSEAU9un8-5" value="" style="line;strokeWidth=1;fillColor=none;align=left;verticalAlign=middle;spacingTop=-1;spacingLeft=3;spacingRight=3;rotatable=0;labelPosition=right;points=[];portConstraint=eastwest;" parent="z4mqVL_0eLTdSEAU9un8-3" vertex="1">
          <mxGeometry y="52" width="160" height="8" as="geometry"/>
        </mxCell>
        <mxCell id="z4mqVL_0eLTdSEAU9un8-6" value="+ method(type): type" style="text;strokeColor=none;fillColor=none;align=left;verticalAlign=top;spacingLeft=4;spacingRight=4;overflow=hidden;rotatable=0;points=[[0,0.5],[1,0.5]];portConstraint=eastwest;" parent="z4mqVL_0eLTdSEAU9un8-3" vertex="1">
          <mxGeometry y="60" width="160" height="26" as="geometry"/>
        </mxCell>
        <mxCell id="z4mqVL_0eLTdSEAU9un8-8" value="" style="endArrow=block;dashed=1;endFill=0;endSize=12;html=1;" parent="1" edge="1">
          <mxGeometry width="160" relative="1" as="geometry">
            <mxPoint x="90" y="412.5" as="sourcePoint"/>
            <mxPoint x="250" y="412.5" as="targetPoint"/>
          </mxGeometry>
        </mxCell>
        <mxCell id="z4mqVL_0eLTdSEAU9un8-9" value="" style="endArrow=block;endFill=0;endSize=12;html=1;rounded=1;" parent="1" edge="1">
          <mxGeometry width="160" relative="1" as="geometry">
            <mxPoint x="90" y="530" as="sourcePoint"/>
            <mxPoint x="250" y="530" as="targetPoint"/>
          </mxGeometry>
        </mxCell>
        <mxCell id="z4mqVL_0eLTdSEAU9un8-10" value="Implementation line: used when inheriting from an interface. Dashed line instead of solid." style="whiteSpace=wrap;html=1;shape=mxgraph.basic.roundRectCallout;dx=30;dy=15;size=5;boundedLbl=1;align=center;verticalAlign=middle;labelPosition=center;verticalLabelPosition=middle;" parent="1" vertex="1">
          <mxGeometry x="160" y="340" width="200" height="60" as="geometry"/>
        </mxCell>
        <mxCell id="z4mqVL_0eLTdSEAU9un8-11" value="Extends line: used when inheriting from a class or abstract class." style="whiteSpace=wrap;html=1;shape=mxgraph.basic.roundRectCallout;dx=30;dy=15;size=5;boundedLbl=1;align=left;verticalAlign=middle;labelPosition=center;verticalLabelPosition=middle;" parent="1" vertex="1">
          <mxGeometry x="160" y="465" width="200" height="60" as="geometry"/>
        </mxCell>
        <mxCell id="z4mqVL_0eLTdSEAU9un8-12" value="&lt;h1&gt;Adding fields and methods&lt;/h1&gt;&lt;p&gt;To add a field or method to these prototypes, select an existing field or method box, and press Ctrl-Enter (for Windows) or Cmd-Enter (for Mac).&amp;nbsp; This will create a duplicate immediately below your selection.&amp;nbsp; &amp;nbsp;The other way to create new fields is from the menu bar select &quot;Edit -&amp;gt; Duplicate&quot; or Ctrl-D/Cmd-D.&amp;nbsp; This will add the new field at the end of the class, and you will need to move it to where you want it in the class.&lt;/p&gt;" style="text;html=1;strokeColor=none;fillColor=none;spacing=5;spacingTop=-20;whiteSpace=wrap;overflow=hidden;rounded=0;" parent="1" vertex="1">
          <mxGeometry x="90" y="25" width="320" height="164" as="geometry"/>
        </mxCell>
      </root>
    </mxGraphModel>
  </diagram>
  <diagram name="Homework 10222019" id="iz7qYOLKrJsOkKJrmg_F">
    <mxGraphModel dx="1128" dy="719" grid="1" gridSize="10" guides="1" tooltips="1" connect="1" arrows="1" fold="1" page="1" pageScale="1" pageWidth="1100" pageHeight="850" math="0" shadow="0">
      <root>
        <mxCell id="Sehh7aHH64zV2SJH-Yfa-0"/>
        <mxCell id="Sehh7aHH64zV2SJH-Yfa-1" parent="Sehh7aHH64zV2SJH-Yfa-0"/>
        <mxCell id="Sehh7aHH64zV2SJH-Yfa-2" style="rounded=1;orthogonalLoop=1;jettySize=auto;html=1;entryX=0.513;entryY=1.038;entryDx=0;entryDy=0;entryPerimeter=0;orthogonal=1;exitX=0.5;exitY=0;exitDx=0;exitDy=0;endArrow=block;endFill=0;endSize=12;dashed=1;" parent="Sehh7aHH64zV2SJH-Yfa-1" source="Sehh7aHH64zV2SJH-Yfa-4" target="Sehh7aHH64zV2SJH-Yfa-17" edge="1">
          <mxGeometry relative="1" as="geometry">
            <mxPoint x="580" y="180" as="targetPoint"/>
          </mxGeometry>
        </mxCell>
        <mxCell id="Sehh7aHH64zV2SJH-Yfa-3" style="orthogonalLoop=1;jettySize=auto;html=1;orthogonal=1;exitX=0.5;exitY=0;exitDx=0;exitDy=0;endArrow=block;endFill=0;endSize=12;rounded=1;dashed=1;entryX=0;entryY=0.5;entryDx=0;entryDy=0;" parent="Sehh7aHH64zV2SJH-Yfa-1" source="Sehh7aHH64zV2SJH-Yfa-4" target="Sehh7aHH64zV2SJH-Yfa-58" edge="1">
          <mxGeometry relative="1" as="geometry">
            <mxPoint x="950" y="150" as="targetPoint"/>
          </mxGeometry>
        </mxCell>
        <mxCell id="Sehh7aHH64zV2SJH-Yfa-4" value="AbstractQuad" style="swimlane;fontStyle=1;align=center;verticalAlign=top;childLayout=stackLayout;horizontal=1;startSize=26;horizontalStack=0;resizeParent=1;resizeParentMax=0;resizeLast=0;collapsible=1;marginBottom=0;" parent="Sehh7aHH64zV2SJH-Yfa-1" vertex="1">
          <mxGeometry x="720" y="140" width="160" height="190" as="geometry"/>
        </mxCell>
        <mxCell id="Sehh7aHH64zV2SJH-Yfa-5" value="+ field: type" style="text;strokeColor=none;fillColor=none;align=left;verticalAlign=top;spacingLeft=4;spacingRight=4;overflow=hidden;rotatable=0;points=[[0,0.5],[1,0.5]];portConstraint=eastwest;" parent="Sehh7aHH64zV2SJH-Yfa-4" vertex="1">
          <mxGeometry y="26" width="160" height="26" as="geometry"/>
        </mxCell>
        <mxCell id="Sehh7aHH64zV2SJH-Yfa-6" value="" style="line;strokeWidth=1;fillColor=none;align=left;verticalAlign=middle;spacingTop=-1;spacingLeft=3;spacingRight=3;rotatable=0;labelPosition=right;points=[];portConstraint=eastwest;" parent="Sehh7aHH64zV2SJH-Yfa-4" vertex="1">
          <mxGeometry y="52" width="160" height="8" as="geometry"/>
        </mxCell>
        <mxCell id="Sehh7aHH64zV2SJH-Yfa-7" value="+ perimeter()" style="text;strokeColor=none;fillColor=none;align=left;verticalAlign=top;spacingLeft=4;spacingRight=4;overflow=hidden;rotatable=0;points=[[0,0.5],[1,0.5]];portConstraint=eastwest;" parent="Sehh7aHH64zV2SJH-Yfa-4" vertex="1">
          <mxGeometry y="60" width="160" height="26" as="geometry"/>
        </mxCell>
        <mxCell id="Sehh7aHH64zV2SJH-Yfa-8" value="+ area()" style="text;strokeColor=none;fillColor=none;align=left;verticalAlign=top;spacingLeft=4;spacingRight=4;overflow=hidden;rotatable=0;points=[[0,0.5],[1,0.5]];portConstraint=eastwest;" parent="Sehh7aHH64zV2SJH-Yfa-4" vertex="1">
          <mxGeometry y="86" width="160" height="26" as="geometry"/>
        </mxCell>
        <mxCell id="Sehh7aHH64zV2SJH-Yfa-9" value="# getSides() : Integer[]" style="text;strokeColor=none;fillColor=none;align=left;verticalAlign=top;spacingLeft=4;spacingRight=4;overflow=hidden;rotatable=0;points=[[0,0.5],[1,0.5]];portConstraint=eastwest;" parent="Sehh7aHH64zV2SJH-Yfa-4" vertex="1">
          <mxGeometry y="112" width="160" height="26" as="geometry"/>
        </mxCell>
        <mxCell id="Sehh7aHH64zV2SJH-Yfa-62" value="# getellipses() : Integer[]" style="text;strokeColor=none;fillColor=none;align=left;verticalAlign=top;spacingLeft=4;spacingRight=4;overflow=hidden;rotatable=0;points=[[0,0.5],[1,0.5]];portConstraint=eastwest;" parent="Sehh7aHH64zV2SJH-Yfa-4" vertex="1">
          <mxGeometry y="138" width="160" height="26" as="geometry"/>
        </mxCell>
        <mxCell id="Sehh7aHH64zV2SJH-Yfa-68" value="# getdiameter() : Integer[]" style="text;strokeColor=none;fillColor=none;align=left;verticalAlign=top;spacingLeft=4;spacingRight=4;overflow=hidden;rotatable=0;points=[[0,0.5],[1,0.5]];portConstraint=eastwest;" parent="Sehh7aHH64zV2SJH-Yfa-4" vertex="1">
          <mxGeometry y="164" width="160" height="26" as="geometry"/>
        </mxCell>
        <mxCell id="Sehh7aHH64zV2SJH-Yfa-10" style="rounded=1;orthogonalLoop=1;jettySize=auto;html=1;entryX=0.5;entryY=1;entryDx=0;entryDy=0;orthogonal=1;endArrow=block;endFill=0;endSize=12;" parent="Sehh7aHH64zV2SJH-Yfa-1" source="Sehh7aHH64zV2SJH-Yfa-11" target="Sehh7aHH64zV2SJH-Yfa-4" edge="1">
          <mxGeometry relative="1" as="geometry">
            <mxPoint x="643.76" y="425.716" as="targetPoint"/>
          </mxGeometry>
        </mxCell>
        <mxCell id="Sehh7aHH64zV2SJH-Yfa-11" value="AbstractSymmetricQuad" style="swimlane;fontStyle=1;align=center;verticalAlign=top;childLayout=stackLayout;horizontal=1;startSize=26;horizontalStack=0;resizeParent=1;resizeParentMax=0;resizeLast=0;collapsible=1;marginBottom=0;" parent="Sehh7aHH64zV2SJH-Yfa-1" vertex="1">
          <mxGeometry x="720" y="387" width="160" height="216" as="geometry"/>
        </mxCell>
        <mxCell id="Sehh7aHH64zV2SJH-Yfa-12" value="- field: type" style="text;strokeColor=none;fillColor=none;align=left;verticalAlign=top;spacingLeft=4;spacingRight=4;overflow=hidden;rotatable=0;points=[[0,0.5],[1,0.5]];portConstraint=eastwest;" parent="Sehh7aHH64zV2SJH-Yfa-11" vertex="1">
          <mxGeometry y="26" width="160" height="26" as="geometry"/>
        </mxCell>
        <mxCell id="Sehh7aHH64zV2SJH-Yfa-13" value="" style="line;strokeWidth=1;fillColor=none;align=left;verticalAlign=middle;spacingTop=-1;spacingLeft=3;spacingRight=3;rotatable=0;labelPosition=right;points=[];portConstraint=eastwest;" parent="Sehh7aHH64zV2SJH-Yfa-11" vertex="1">
          <mxGeometry y="52" width="160" height="8" as="geometry"/>
        </mxCell>
        <mxCell id="Sehh7aHH64zV2SJH-Yfa-14" value="+ getWidth() : integer" style="text;strokeColor=none;fillColor=none;align=left;verticalAlign=top;spacingLeft=4;spacingRight=4;overflow=hidden;rotatable=0;points=[[0,0.5],[1,0.5]];portConstraint=eastwest;" parent="Sehh7aHH64zV2SJH-Yfa-11" vertex="1">
          <mxGeometry y="60" width="160" height="26" as="geometry"/>
        </mxCell>
        <mxCell id="Sehh7aHH64zV2SJH-Yfa-15" value="+ getHeight() : integer" style="text;strokeColor=none;fillColor=none;align=left;verticalAlign=top;spacingLeft=4;spacingRight=4;overflow=hidden;rotatable=0;points=[[0,0.5],[1,0.5]];portConstraint=eastwest;" parent="Sehh7aHH64zV2SJH-Yfa-11" vertex="1">
          <mxGeometry y="86" width="160" height="26" as="geometry"/>
        </mxCell>
        <mxCell id="Sehh7aHH64zV2SJH-Yfa-69" value="+ getHeight() : integer" style="text;strokeColor=none;fillColor=none;align=left;verticalAlign=top;spacingLeft=4;spacingRight=4;overflow=hidden;rotatable=0;points=[[0,0.5],[1,0.5]];portConstraint=eastwest;" parent="Sehh7aHH64zV2SJH-Yfa-11" vertex="1">
          <mxGeometry y="112" width="160" height="26" as="geometry"/>
        </mxCell>
        <mxCell id="Sehh7aHH64zV2SJH-Yfa-70" value="+ gefixepoint1() : integer" style="text;strokeColor=none;fillColor=none;align=left;verticalAlign=top;spacingLeft=4;spacingRight=4;overflow=hidden;rotatable=0;points=[[0,0.5],[1,0.5]];portConstraint=eastwest;" parent="Sehh7aHH64zV2SJH-Yfa-11" vertex="1">
          <mxGeometry y="138" width="160" height="26" as="geometry"/>
        </mxCell>
        <mxCell id="Sehh7aHH64zV2SJH-Yfa-74" value="+ gefixepoint2() : integer" style="text;strokeColor=none;fillColor=none;align=left;verticalAlign=top;spacingLeft=4;spacingRight=4;overflow=hidden;rotatable=0;points=[[0,0.5],[1,0.5]];portConstraint=eastwest;" parent="Sehh7aHH64zV2SJH-Yfa-11" vertex="1">
          <mxGeometry y="164" width="160" height="26" as="geometry"/>
        </mxCell>
        <mxCell id="Sehh7aHH64zV2SJH-Yfa-75" value="+ getdiameter() : integer" style="text;strokeColor=none;fillColor=none;align=left;verticalAlign=top;spacingLeft=4;spacingRight=4;overflow=hidden;rotatable=0;points=[[0,0.5],[1,0.5]];portConstraint=eastwest;" parent="Sehh7aHH64zV2SJH-Yfa-11" vertex="1">
          <mxGeometry y="190" width="160" height="26" as="geometry"/>
        </mxCell>
        <mxCell id="Sehh7aHH64zV2SJH-Yfa-16" value="«interface»&lt;br&gt;&lt;b&gt;DrawableShape&lt;/b&gt;" style="swimlane;fontStyle=1;align=center;verticalAlign=top;childLayout=stackLayout;horizontal=1;startSize=40;horizontalStack=0;resizeParent=1;resizeParentMax=0;resizeLast=0;collapsible=1;marginBottom=0;html=1;collapsible=1;swimlaneLine=1;" parent="Sehh7aHH64zV2SJH-Yfa-1" vertex="1">
          <mxGeometry x="540" y="30" width="160" height="66" as="geometry"/>
        </mxCell>
        <mxCell id="Sehh7aHH64zV2SJH-Yfa-17" value="+ draw()" style="text;strokeColor=none;fillColor=none;align=left;verticalAlign=top;spacingLeft=4;spacingRight=4;overflow=hidden;rotatable=0;points=[[0,0.5],[1,0.5]];portConstraint=eastwest;" parent="Sehh7aHH64zV2SJH-Yfa-16" vertex="1">
          <mxGeometry y="40" width="160" height="26" as="geometry"/>
        </mxCell>
        <mxCell id="Sehh7aHH64zV2SJH-Yfa-18" value="«interface»&lt;br&gt;&lt;b&gt;CalcableShape&lt;/b&gt;" style="swimlane;fontStyle=1;align=center;verticalAlign=top;childLayout=stackLayout;horizontal=1;startSize=40;horizontalStack=0;resizeParent=1;resizeParentMax=0;resizeLast=0;collapsible=1;marginBottom=0;html=1;collapsible=1;swimlaneLine=1;" parent="Sehh7aHH64zV2SJH-Yfa-1" vertex="1">
          <mxGeometry x="980" y="25" width="160" height="170" as="geometry"/>
        </mxCell>
        <mxCell id="Sehh7aHH64zV2SJH-Yfa-19" value="+ perimeter()" style="text;strokeColor=none;fillColor=none;align=left;verticalAlign=top;spacingLeft=4;spacingRight=4;overflow=hidden;rotatable=0;points=[[0,0.5],[1,0.5]];portConstraint=eastwest;" parent="Sehh7aHH64zV2SJH-Yfa-18" vertex="1">
          <mxGeometry y="40" width="160" height="26" as="geometry"/>
        </mxCell>
        <mxCell id="Sehh7aHH64zV2SJH-Yfa-20" value="+ area()" style="text;strokeColor=none;fillColor=none;align=left;verticalAlign=top;spacingLeft=4;spacingRight=4;overflow=hidden;rotatable=0;points=[[0,0.5],[1,0.5]];portConstraint=eastwest;" parent="Sehh7aHH64zV2SJH-Yfa-18" vertex="1">
          <mxGeometry y="66" width="160" height="26" as="geometry"/>
        </mxCell>
        <mxCell id="Sehh7aHH64zV2SJH-Yfa-58" value="+ ellipsesmath()" style="text;strokeColor=none;fillColor=none;align=left;verticalAlign=top;spacingLeft=4;spacingRight=4;overflow=hidden;rotatable=0;points=[[0,0.5],[1,0.5]];portConstraint=eastwest;" parent="Sehh7aHH64zV2SJH-Yfa-18" vertex="1">
          <mxGeometry y="92" width="160" height="26" as="geometry"/>
        </mxCell>
        <mxCell id="Sehh7aHH64zV2SJH-Yfa-67" value="+ diameter()" style="text;strokeColor=none;fillColor=none;align=left;verticalAlign=top;spacingLeft=4;spacingRight=4;overflow=hidden;rotatable=0;points=[[0,0.5],[1,0.5]];portConstraint=eastwest;" parent="Sehh7aHH64zV2SJH-Yfa-18" vertex="1">
          <mxGeometry y="118" width="160" height="26" as="geometry"/>
        </mxCell>
        <mxCell id="Sehh7aHH64zV2SJH-Yfa-77" value="+ sidlength()" style="text;strokeColor=none;fillColor=none;align=left;verticalAlign=top;spacingLeft=4;spacingRight=4;overflow=hidden;rotatable=0;points=[[0,0.5],[1,0.5]];portConstraint=eastwest;" parent="Sehh7aHH64zV2SJH-Yfa-18" vertex="1">
          <mxGeometry y="144" width="160" height="26" as="geometry"/>
        </mxCell>
        <mxCell id="Sehh7aHH64zV2SJH-Yfa-21" style="rounded=1;orthogonalLoop=1;jettySize=auto;html=1;orthogonal=1;exitX=0.5;exitY=0;exitDx=0;exitDy=0;endArrow=block;endFill=0;endSize=12;" parent="Sehh7aHH64zV2SJH-Yfa-1" source="Sehh7aHH64zV2SJH-Yfa-22" edge="1">
          <mxGeometry relative="1" as="geometry">
            <mxPoint x="720" y="560" as="targetPoint"/>
          </mxGeometry>
        </mxCell>
        <mxCell id="Sehh7aHH64zV2SJH-Yfa-22" value="Square" style="swimlane;fontStyle=1;align=center;verticalAlign=top;childLayout=stackLayout;horizontal=1;startSize=26;horizontalStack=0;resizeParent=1;resizeParentMax=0;resizeLast=0;collapsible=1;marginBottom=0;" parent="Sehh7aHH64zV2SJH-Yfa-1" vertex="1">
          <mxGeometry x="510" y="710" width="160" height="86" as="geometry"/>
        </mxCell>
        <mxCell id="Sehh7aHH64zV2SJH-Yfa-23" value="- sideLength : integer" style="text;strokeColor=none;fillColor=none;align=left;verticalAlign=top;spacingLeft=4;spacingRight=4;overflow=hidden;rotatable=0;points=[[0,0.5],[1,0.5]];portConstraint=eastwest;" parent="Sehh7aHH64zV2SJH-Yfa-22" vertex="1">
          <mxGeometry y="26" width="160" height="26" as="geometry"/>
        </mxCell>
        <mxCell id="Sehh7aHH64zV2SJH-Yfa-24" value="" style="line;strokeWidth=1;fillColor=none;align=left;verticalAlign=middle;spacingTop=-1;spacingLeft=3;spacingRight=3;rotatable=0;labelPosition=right;points=[];portConstraint=eastwest;" parent="Sehh7aHH64zV2SJH-Yfa-22" vertex="1">
          <mxGeometry y="52" width="160" height="8" as="geometry"/>
        </mxCell>
        <mxCell id="Sehh7aHH64zV2SJH-Yfa-25" value="+ ..." style="text;strokeColor=none;fillColor=none;align=left;verticalAlign=top;spacingLeft=4;spacingRight=4;overflow=hidden;rotatable=0;points=[[0,0.5],[1,0.5]];portConstraint=eastwest;" parent="Sehh7aHH64zV2SJH-Yfa-22" vertex="1">
          <mxGeometry y="60" width="160" height="26" as="geometry"/>
        </mxCell>
        <mxCell id="Sehh7aHH64zV2SJH-Yfa-26" style="rounded=1;orthogonalLoop=1;jettySize=auto;html=1;orthogonal=1;exitX=0.5;exitY=0;exitDx=0;exitDy=0;endArrow=block;endFill=0;endSize=12;" parent="Sehh7aHH64zV2SJH-Yfa-1" source="Sehh7aHH64zV2SJH-Yfa-27" edge="1">
          <mxGeometry relative="1" as="geometry">
            <mxPoint x="880" y="560" as="targetPoint"/>
          </mxGeometry>
        </mxCell>
        <mxCell id="Sehh7aHH64zV2SJH-Yfa-27" value="Rectangle" style="swimlane;fontStyle=1;align=center;verticalAlign=top;childLayout=stackLayout;horizontal=1;startSize=26;horizontalStack=0;resizeParent=1;resizeParentMax=0;resizeLast=0;collapsible=1;marginBottom=0;" parent="Sehh7aHH64zV2SJH-Yfa-1" vertex="1">
          <mxGeometry x="900" y="710" width="160" height="112" as="geometry"/>
        </mxCell>
        <mxCell id="Sehh7aHH64zV2SJH-Yfa-28" value="- width : integer" style="text;strokeColor=none;fillColor=none;align=left;verticalAlign=top;spacingLeft=4;spacingRight=4;overflow=hidden;rotatable=0;points=[[0,0.5],[1,0.5]];portConstraint=eastwest;" parent="Sehh7aHH64zV2SJH-Yfa-27" vertex="1">
          <mxGeometry y="26" width="160" height="26" as="geometry"/>
        </mxCell>
        <mxCell id="Sehh7aHH64zV2SJH-Yfa-29" value="- height : integer" style="text;strokeColor=none;fillColor=none;align=left;verticalAlign=top;spacingLeft=4;spacingRight=4;overflow=hidden;rotatable=0;points=[[0,0.5],[1,0.5]];portConstraint=eastwest;" parent="Sehh7aHH64zV2SJH-Yfa-27" vertex="1">
          <mxGeometry y="52" width="160" height="26" as="geometry"/>
        </mxCell>
        <mxCell id="Sehh7aHH64zV2SJH-Yfa-30" value="" style="line;strokeWidth=1;fillColor=none;align=left;verticalAlign=middle;spacingTop=-1;spacingLeft=3;spacingRight=3;rotatable=0;labelPosition=right;points=[];portConstraint=eastwest;" parent="Sehh7aHH64zV2SJH-Yfa-27" vertex="1">
          <mxGeometry y="78" width="160" height="8" as="geometry"/>
        </mxCell>
        <mxCell id="Sehh7aHH64zV2SJH-Yfa-31" value="+ ..." style="text;strokeColor=none;fillColor=none;align=left;verticalAlign=top;spacingLeft=4;spacingRight=4;overflow=hidden;rotatable=0;points=[[0,0.5],[1,0.5]];portConstraint=eastwest;" parent="Sehh7aHH64zV2SJH-Yfa-27" vertex="1">
          <mxGeometry y="86" width="160" height="26" as="geometry"/>
        </mxCell>
        <mxCell id="Sehh7aHH64zV2SJH-Yfa-32" value="«interface»&lt;br&gt;Color" style="swimlane;fontStyle=1;align=center;verticalAlign=top;childLayout=stackLayout;horizontal=1;startSize=40;horizontalStack=0;resizeParent=1;resizeParentMax=0;resizeLast=0;collapsible=1;marginBottom=0;html=1;collapsible=1;swimlaneLine=1;" parent="Sehh7aHH64zV2SJH-Yfa-1" vertex="1">
          <mxGeometry x="730" y="10" width="160" height="66" as="geometry"/>
        </mxCell>
        <mxCell id="Sehh7aHH64zV2SJH-Yfa-33" value="+ Color() " style="text;strokeColor=none;fillColor=none;align=left;verticalAlign=top;spacingLeft=4;spacingRight=4;overflow=hidden;rotatable=0;points=[[0,0.5],[1,0.5]];portConstraint=eastwest;" parent="Sehh7aHH64zV2SJH-Yfa-32" vertex="1">
          <mxGeometry y="40" width="160" height="26" as="geometry"/>
        </mxCell>
        <mxCell id="Sehh7aHH64zV2SJH-Yfa-42" value="&lt;h1 style=&quot;font-size: 14px&quot;&gt;&lt;span style=&quot;color: rgb(45 , 59 , 69) ; font-family: &amp;#34;lato&amp;#34; , &amp;#34;helvetica neue&amp;#34; , &amp;#34;helvetica&amp;#34; , &amp;#34;arial&amp;#34; , sans-serif ; font-weight: 400 ; background-color: rgb(255 , 255 , 255)&quot;&gt;I would like you to extend our shapes class diagram from Thursday&#39;s class. Using the&amp;nbsp;&lt;/span&gt;&lt;a class=&quot;instructure_file_link&quot; title=&quot;Shapes.drawio&quot; href=&quot;https://sdccd.instructure.com/courses/2373467/files/129129119/download?wrap=1&quot; style=&quot;font-family: &amp;#34;lato&amp;#34; , &amp;#34;helvetica neue&amp;#34; , &amp;#34;helvetica&amp;#34; , &amp;#34;arial&amp;#34; , sans-serif ; font-weight: 400 ; background-color: rgb(255 , 255 , 255)&quot;&gt;attached diagram&lt;/a&gt;&lt;span style=&quot;color: rgb(45 , 59 , 69) ; font-family: &amp;#34;lato&amp;#34; , &amp;#34;helvetica neue&amp;#34; , &amp;#34;helvetica&amp;#34; , &amp;#34;arial&amp;#34; , sans-serif ; font-weight: 400 ; background-color: rgb(255 , 255 , 255)&quot;&gt;, extend it to include color, triangles, circles, and ellipses. &amp;nbsp;Please add comments to your diagram, either as text boxes or notes, to describe why you chose a particular design. The reference diagram includes empty interface and class models, and implementation (interfaces) and extends (class) lines.&amp;nbsp;&lt;/span&gt;&lt;br&gt;&lt;/h1&gt;" style="text;html=1;strokeColor=none;fillColor=none;spacing=5;spacingTop=-20;whiteSpace=wrap;overflow=hidden;rounded=0;" parent="Sehh7aHH64zV2SJH-Yfa-1" vertex="1">
          <mxGeometry x="90" y="25" width="320" height="164" as="geometry"/>
        </mxCell>
        <mxCell id="Sehh7aHH64zV2SJH-Yfa-44" value="Circle" style="swimlane;fontStyle=1;align=center;verticalAlign=top;childLayout=stackLayout;horizontal=1;startSize=26;horizontalStack=0;resizeParent=1;resizeParentMax=0;resizeLast=0;collapsible=1;marginBottom=0;" parent="Sehh7aHH64zV2SJH-Yfa-1" vertex="1">
          <mxGeometry x="930" y="332" width="160" height="86" as="geometry"/>
        </mxCell>
        <mxCell id="Sehh7aHH64zV2SJH-Yfa-45" value="- diameter : integer" style="text;strokeColor=none;fillColor=none;align=left;verticalAlign=top;spacingLeft=4;spacingRight=4;overflow=hidden;rotatable=0;points=[[0,0.5],[1,0.5]];portConstraint=eastwest;" parent="Sehh7aHH64zV2SJH-Yfa-44" vertex="1">
          <mxGeometry y="26" width="160" height="26" as="geometry"/>
        </mxCell>
        <mxCell id="Sehh7aHH64zV2SJH-Yfa-46" value="" style="line;strokeWidth=1;fillColor=none;align=left;verticalAlign=middle;spacingTop=-1;spacingLeft=3;spacingRight=3;rotatable=0;labelPosition=right;points=[];portConstraint=eastwest;" parent="Sehh7aHH64zV2SJH-Yfa-44" vertex="1">
          <mxGeometry y="52" width="160" height="8" as="geometry"/>
        </mxCell>
        <mxCell id="Sehh7aHH64zV2SJH-Yfa-47" value="+ ." style="text;strokeColor=none;fillColor=none;align=left;verticalAlign=top;spacingLeft=4;spacingRight=4;overflow=hidden;rotatable=0;points=[[0,0.5],[1,0.5]];portConstraint=eastwest;" parent="Sehh7aHH64zV2SJH-Yfa-44" vertex="1">
          <mxGeometry y="60" width="160" height="26" as="geometry"/>
        </mxCell>
        <mxCell id="Sehh7aHH64zV2SJH-Yfa-48" value="Triangle" style="swimlane;fontStyle=1;align=center;verticalAlign=top;childLayout=stackLayout;horizontal=1;startSize=26;horizontalStack=0;resizeParent=1;resizeParentMax=0;resizeLast=0;collapsible=1;marginBottom=0;" parent="Sehh7aHH64zV2SJH-Yfa-1" vertex="1">
          <mxGeometry x="520" y="460" width="160" height="86" as="geometry"/>
        </mxCell>
        <mxCell id="Sehh7aHH64zV2SJH-Yfa-49" value="- sideLength : integer" style="text;strokeColor=none;fillColor=none;align=left;verticalAlign=top;spacingLeft=4;spacingRight=4;overflow=hidden;rotatable=0;points=[[0,0.5],[1,0.5]];portConstraint=eastwest;" parent="Sehh7aHH64zV2SJH-Yfa-48" vertex="1">
          <mxGeometry y="26" width="160" height="26" as="geometry"/>
        </mxCell>
        <mxCell id="Sehh7aHH64zV2SJH-Yfa-50" value="" style="line;strokeWidth=1;fillColor=none;align=left;verticalAlign=middle;spacingTop=-1;spacingLeft=3;spacingRight=3;rotatable=0;labelPosition=right;points=[];portConstraint=eastwest;" parent="Sehh7aHH64zV2SJH-Yfa-48" vertex="1">
          <mxGeometry y="52" width="160" height="8" as="geometry"/>
        </mxCell>
        <mxCell id="Sehh7aHH64zV2SJH-Yfa-51" value="+ ." style="text;strokeColor=none;fillColor=none;align=left;verticalAlign=top;spacingLeft=4;spacingRight=4;overflow=hidden;rotatable=0;points=[[0,0.5],[1,0.5]];portConstraint=eastwest;" parent="Sehh7aHH64zV2SJH-Yfa-48" vertex="1">
          <mxGeometry y="60" width="160" height="26" as="geometry"/>
        </mxCell>
        <mxCell id="Sehh7aHH64zV2SJH-Yfa-52" value="Ellipses" style="swimlane;fontStyle=1;align=center;verticalAlign=top;childLayout=stackLayout;horizontal=1;startSize=26;horizontalStack=0;resizeParent=1;resizeParentMax=0;resizeLast=0;collapsible=1;marginBottom=0;" parent="Sehh7aHH64zV2SJH-Yfa-1" vertex="1">
          <mxGeometry x="510" y="228" width="160" height="104" as="geometry"/>
        </mxCell>
        <mxCell id="Sehh7aHH64zV2SJH-Yfa-53" value="- fixedpoint1 : integer&#xa;" style="text;strokeColor=none;fillColor=none;align=left;verticalAlign=top;spacingLeft=4;spacingRight=4;overflow=hidden;rotatable=0;points=[[0,0.5],[1,0.5]];portConstraint=eastwest;" parent="Sehh7aHH64zV2SJH-Yfa-52" vertex="1">
          <mxGeometry y="26" width="160" height="26" as="geometry"/>
        </mxCell>
        <mxCell id="Sehh7aHH64zV2SJH-Yfa-73" value="- fixedpoint2 : integer&#xa;" style="text;strokeColor=none;fillColor=none;align=left;verticalAlign=top;spacingLeft=4;spacingRight=4;overflow=hidden;rotatable=0;points=[[0,0.5],[1,0.5]];portConstraint=eastwest;" parent="Sehh7aHH64zV2SJH-Yfa-52" vertex="1">
          <mxGeometry y="52" width="160" height="26" as="geometry"/>
        </mxCell>
        <mxCell id="Sehh7aHH64zV2SJH-Yfa-76" value="+ ." style="text;strokeColor=#000000;fillColor=none;align=left;verticalAlign=top;spacingLeft=4;spacingRight=4;overflow=hidden;rotatable=0;points=[[0,0.5],[1,0.5]];portConstraint=eastwest;" parent="Sehh7aHH64zV2SJH-Yfa-52" vertex="1">
          <mxGeometry y="78" width="160" height="26" as="geometry"/>
        </mxCell>
        <mxCell id="Sehh7aHH64zV2SJH-Yfa-59" value="" style="endArrow=block;endFill=0;endSize=12;html=1;rounded=1;exitX=0.25;exitY=0;exitDx=0;exitDy=0;" parent="Sehh7aHH64zV2SJH-Yfa-1" source="Sehh7aHH64zV2SJH-Yfa-48" edge="1">
          <mxGeometry width="160" relative="1" as="geometry">
            <mxPoint x="590" y="450" as="sourcePoint"/>
            <mxPoint x="710" y="420" as="targetPoint"/>
          </mxGeometry>
        </mxCell>
        <mxCell id="Sehh7aHH64zV2SJH-Yfa-60" value="" style="endArrow=block;endFill=0;endSize=12;html=1;rounded=1;exitX=0.594;exitY=1.192;exitDx=0;exitDy=0;exitPerimeter=0;" parent="Sehh7aHH64zV2SJH-Yfa-1" source="Sehh7aHH64zV2SJH-Yfa-47" edge="1">
          <mxGeometry width="160" relative="1" as="geometry">
            <mxPoint x="1050" y="459.5" as="sourcePoint"/>
            <mxPoint x="880" y="460" as="targetPoint"/>
          </mxGeometry>
        </mxCell>
        <mxCell id="Sehh7aHH64zV2SJH-Yfa-61" value="" style="endArrow=block;endFill=0;endSize=12;html=1;rounded=1;exitX=0.341;exitY=1.224;exitDx=0;exitDy=0;exitPerimeter=0;entryX=-0.031;entryY=0.063;entryDx=0;entryDy=0;entryPerimeter=0;" parent="Sehh7aHH64zV2SJH-Yfa-1" source="Sehh7aHH64zV2SJH-Yfa-76" target="Sehh7aHH64zV2SJH-Yfa-11" edge="1">
          <mxGeometry width="160" relative="1" as="geometry">
            <mxPoint x="556.0799999999999" y="344.99199999999996" as="sourcePoint"/>
            <mxPoint x="700" y="345" as="targetPoint"/>
          </mxGeometry>
        </mxCell>
        <mxCell id="Sehh7aHH64zV2SJH-Yfa-64" value="" style="endArrow=block;dashed=1;endFill=0;endSize=12;html=1;exitX=0.5;exitY=0;exitDx=0;exitDy=0;entryX=0.581;entryY=1.269;entryDx=0;entryDy=0;entryPerimeter=0;" parent="Sehh7aHH64zV2SJH-Yfa-1" source="Sehh7aHH64zV2SJH-Yfa-4" target="Sehh7aHH64zV2SJH-Yfa-33" edge="1">
          <mxGeometry width="160" relative="1" as="geometry">
            <mxPoint x="790" y="110" as="sourcePoint"/>
            <mxPoint x="950" y="110" as="targetPoint"/>
          </mxGeometry>
        </mxCell>
        <mxCell id="Sehh7aHH64zV2SJH-Yfa-66" value="&lt;font style=&quot;font-size: 13px&quot;&gt;Color added as interface because it has nothing to do with the sizing and no math is needed.&amp;nbsp; It would have classes for each Color, however no need to add them as the interface calls color. which is a separate class.&lt;br&gt;&lt;br&gt;Triangle is side length.&lt;br&gt;Circle is diameter.&lt;br&gt;Ellipses is fixed points.&lt;br&gt;&lt;/font&gt;" style="text;html=1;strokeColor=none;fillColor=none;align=left;verticalAlign=middle;whiteSpace=wrap;rounded=0;" parent="Sehh7aHH64zV2SJH-Yfa-1" vertex="1">
          <mxGeometry x="90" y="274" width="250" height="236" as="geometry"/>
        </mxCell>
      </root>
    </mxGraphModel>
  </diagram>
  <diagram id="0qk8PdiMDr5Iis9F0IQv" name="singleton">
    <mxGraphModel dx="1128" dy="1819" grid="1" gridSize="10" guides="1" tooltips="1" connect="1" arrows="1" fold="1" page="1" pageScale="1" pageWidth="850" pageHeight="1100" math="0" shadow="0">
      <root>
        <mxCell id="mK-Jcj9frJmfvgIpWR-T-0"/>
        <mxCell id="mK-Jcj9frJmfvgIpWR-T-1" parent="mK-Jcj9frJmfvgIpWR-T-0"/>
        <mxCell id="mK-Jcj9frJmfvgIpWR-T-2" value="Singleton" style="swimlane;fontStyle=1;align=center;verticalAlign=top;childLayout=stackLayout;horizontal=1;startSize=26;horizontalStack=0;resizeParent=1;resizeParentMax=0;resizeLast=0;collapsible=1;marginBottom=0;" vertex="1" parent="mK-Jcj9frJmfvgIpWR-T-1">
          <mxGeometry x="252" y="120" width="160" height="112" as="geometry"/>
        </mxCell>
        <mxCell id="mK-Jcj9frJmfvgIpWR-T-3" value="- field: type" style="text;strokeColor=none;fillColor=none;align=left;verticalAlign=top;spacingLeft=4;spacingRight=4;overflow=hidden;rotatable=0;points=[[0,0.5],[1,0.5]];portConstraint=eastwest;" vertex="1" parent="mK-Jcj9frJmfvgIpWR-T-2">
          <mxGeometry y="26" width="160" height="26" as="geometry"/>
        </mxCell>
        <mxCell id="mK-Jcj9frJmfvgIpWR-T-4" value="" style="line;strokeWidth=1;fillColor=none;align=left;verticalAlign=middle;spacingTop=-1;spacingLeft=3;spacingRight=3;rotatable=0;labelPosition=right;points=[];portConstraint=eastwest;" vertex="1" parent="mK-Jcj9frJmfvgIpWR-T-2">
          <mxGeometry y="52" width="160" height="8" as="geometry"/>
        </mxCell>
        <mxCell id="mK-Jcj9frJmfvgIpWR-T-5" value="+ getinstance(): singleton" style="text;strokeColor=none;fillColor=none;align=left;verticalAlign=top;spacingLeft=4;spacingRight=4;overflow=hidden;rotatable=0;points=[[0,0.5],[1,0.5]];portConstraint=eastwest;" vertex="1" parent="mK-Jcj9frJmfvgIpWR-T-2">
          <mxGeometry y="60" width="160" height="26" as="geometry"/>
        </mxCell>
        <mxCell id="mK-Jcj9frJmfvgIpWR-T-6" value="- singleton()" style="text;strokeColor=none;fillColor=none;align=left;verticalAlign=top;spacingLeft=4;spacingRight=4;overflow=hidden;rotatable=0;points=[[0,0.5],[1,0.5]];portConstraint=eastwest;" vertex="1" parent="mK-Jcj9frJmfvgIpWR-T-2">
          <mxGeometry y="86" width="160" height="26" as="geometry"/>
        </mxCell>
        <mxCell id="mK-Jcj9frJmfvgIpWR-T-8" value="Only one thing that it does&lt;br&gt;global variable&lt;br&gt;lazy initialization&lt;br&gt;it gets intialized when someone calls for it&lt;br&gt;&lt;br&gt;one object&lt;br&gt;&lt;br&gt;&lt;br&gt;eg: opening a connection to a external database&lt;br&gt;like from database to website&amp;nbsp; - SSL connection opening can be shared - setup a pool that has all of these things in it&lt;br&gt;&lt;br&gt;eg: factory that creates a MS window and one to create MAC window" style="text;html=1;strokeColor=none;fillColor=none;align=left;verticalAlign=top;whiteSpace=wrap;rounded=0;" vertex="1" parent="mK-Jcj9frJmfvgIpWR-T-1">
          <mxGeometry x="500" y="60" width="310" height="460" as="geometry"/>
        </mxCell>
        <mxCell id="mK-Jcj9frJmfvgIpWR-T-9" value="Attrrbutes for singleton are not stored in the global namespace" style="text;html=1;strokeColor=none;fillColor=none;align=left;verticalAlign=middle;whiteSpace=wrap;rounded=0;" vertex="1" parent="mK-Jcj9frJmfvgIpWR-T-1">
          <mxGeometry x="10" y="370" width="280" height="130" as="geometry"/>
        </mxCell>
        <mxCell id="mK-Jcj9frJmfvgIpWR-T-10" value="careful usage as it it can cause sync issues - resource contention - everyone wants it at the same time, but only one can have it at a time&lt;br&gt;&lt;br&gt;if it is mutable (changeable)- you must lock the object before making any changes&lt;br&gt;&lt;br&gt;it unlocks when you pass it to the next user&lt;br&gt;&lt;br&gt;debugging will be very difficult - locking will help but does not total help&lt;br&gt;&lt;br&gt;SHOULD BE UNMUTABLE&lt;br&gt;&lt;br&gt;&lt;br&gt;-------------------------&lt;br&gt;deadlock - two processes waiting for a resource in a different order - programs hang&lt;br&gt;&lt;br&gt;" style="text;html=1;strokeColor=none;fillColor=none;align=left;verticalAlign=middle;whiteSpace=wrap;rounded=0;" vertex="1" parent="mK-Jcj9frJmfvgIpWR-T-1">
          <mxGeometry x="40" y="50" width="180" height="240" as="geometry"/>
        </mxCell>
      </root>
    </mxGraphModel>
  </diagram>
  <diagram id="l2rHlMXOk82r8myohsnR" name="build">
    <mxGraphModel dx="1128" dy="719" grid="1" gridSize="10" guides="1" tooltips="1" connect="1" arrows="1" fold="1" page="1" pageScale="1" pageWidth="1100" pageHeight="850" math="0" shadow="0">
      <root>
        <mxCell id="-FFPc_2GmYRrsboZQdO_-0"/>
        <mxCell id="-FFPc_2GmYRrsboZQdO_-1" parent="-FFPc_2GmYRrsboZQdO_-0"/>
        <mxCell id="-FFPc_2GmYRrsboZQdO_-2" value="entertainmentBuilder" style="swimlane;fontStyle=1;align=center;verticalAlign=top;childLayout=stackLayout;horizontal=1;startSize=26;horizontalStack=0;resizeParent=1;resizeParentMax=0;resizeLast=0;collapsible=1;marginBottom=0;" vertex="1" parent="-FFPc_2GmYRrsboZQdO_-1">
          <mxGeometry x="270" y="90" width="230" height="242" as="geometry"/>
        </mxCell>
        <mxCell id="lkKAGPi_Do3l90EPDDFt-6" value="- stereo: stereo&#xa;&#xa;speakers : speakers&#xa;" style="text;strokeColor=none;fillColor=none;align=left;verticalAlign=top;spacingLeft=4;spacingRight=4;overflow=hidden;rotatable=0;points=[[0,0.5],[1,0.5]];portConstraint=eastwest;" vertex="1" parent="-FFPc_2GmYRrsboZQdO_-2">
          <mxGeometry y="26" width="230" height="26" as="geometry"/>
        </mxCell>
        <mxCell id="lkKAGPi_Do3l90EPDDFt-8" value="- connections: connections" style="text;strokeColor=none;fillColor=none;align=left;verticalAlign=top;spacingLeft=4;spacingRight=4;overflow=hidden;rotatable=0;points=[[0,0.5],[1,0.5]];portConstraint=eastwest;" vertex="1" parent="-FFPc_2GmYRrsboZQdO_-2">
          <mxGeometry y="52" width="230" height="26" as="geometry"/>
        </mxCell>
        <mxCell id="lkKAGPi_Do3l90EPDDFt-7" value="- stereo: stereo&#xa;" style="text;strokeColor=none;fillColor=none;align=left;verticalAlign=top;spacingLeft=4;spacingRight=4;overflow=hidden;rotatable=0;points=[[0,0.5],[1,0.5]];portConstraint=eastwest;" vertex="1" parent="-FFPc_2GmYRrsboZQdO_-2">
          <mxGeometry y="78" width="230" height="26" as="geometry"/>
        </mxCell>
        <mxCell id="-FFPc_2GmYRrsboZQdO_-3" value="- field: type" style="text;strokeColor=none;fillColor=none;align=left;verticalAlign=top;spacingLeft=4;spacingRight=4;overflow=hidden;rotatable=0;points=[[0,0.5],[1,0.5]];portConstraint=eastwest;" vertex="1" parent="-FFPc_2GmYRrsboZQdO_-2">
          <mxGeometry y="104" width="230" height="26" as="geometry"/>
        </mxCell>
        <mxCell id="-FFPc_2GmYRrsboZQdO_-4" value="" style="line;strokeWidth=1;fillColor=none;align=left;verticalAlign=middle;spacingTop=-1;spacingLeft=3;spacingRight=3;rotatable=0;labelPosition=right;points=[];portConstraint=eastwest;" vertex="1" parent="-FFPc_2GmYRrsboZQdO_-2">
          <mxGeometry y="130" width="230" height="8" as="geometry"/>
        </mxCell>
        <mxCell id="-FFPc_2GmYRrsboZQdO_-5" value="+ setstereo(type):entertainmentbuilder" style="text;strokeColor=none;fillColor=none;align=left;verticalAlign=top;spacingLeft=4;spacingRight=4;overflow=hidden;rotatable=0;points=[[0,0.5],[1,0.5]];portConstraint=eastwest;" vertex="1" parent="-FFPc_2GmYRrsboZQdO_-2">
          <mxGeometry y="138" width="230" height="26" as="geometry"/>
        </mxCell>
        <mxCell id="lkKAGPi_Do3l90EPDDFt-9" value="+ setspeakers(type):entertainmentbuilder" style="text;strokeColor=none;fillColor=none;align=left;verticalAlign=top;spacingLeft=4;spacingRight=4;overflow=hidden;rotatable=0;points=[[0,0.5],[1,0.5]];portConstraint=eastwest;" vertex="1" parent="-FFPc_2GmYRrsboZQdO_-2">
          <mxGeometry y="164" width="230" height="26" as="geometry"/>
        </mxCell>
        <mxCell id="lkKAGPi_Do3l90EPDDFt-10" value="+ setconnections(type):entertainmentbuilder" style="text;strokeColor=none;fillColor=none;align=left;verticalAlign=top;spacingLeft=4;spacingRight=4;overflow=hidden;rotatable=0;points=[[0,0.5],[1,0.5]];portConstraint=eastwest;" vertex="1" parent="-FFPc_2GmYRrsboZQdO_-2">
          <mxGeometry y="190" width="230" height="26" as="geometry"/>
        </mxCell>
        <mxCell id="lkKAGPi_Do3l90EPDDFt-11" value="+ build() : Entertainment" style="text;strokeColor=none;fillColor=none;align=left;verticalAlign=top;spacingLeft=4;spacingRight=4;overflow=hidden;rotatable=0;points=[[0,0.5],[1,0.5]];portConstraint=eastwest;" vertex="1" parent="-FFPc_2GmYRrsboZQdO_-2">
          <mxGeometry y="216" width="230" height="26" as="geometry"/>
        </mxCell>
        <mxCell id="lkKAGPi_Do3l90EPDDFt-0" value="Entertainment" style="swimlane;fontStyle=1;align=center;verticalAlign=top;childLayout=stackLayout;horizontal=1;startSize=26;horizontalStack=0;resizeParent=1;resizeParentMax=0;resizeLast=0;collapsible=1;marginBottom=0;" vertex="1" parent="-FFPc_2GmYRrsboZQdO_-1">
          <mxGeometry x="580" y="112" width="290" height="156" as="geometry"/>
        </mxCell>
        <mxCell id="lkKAGPi_Do3l90EPDDFt-1" value="- stereo: stereo&#xa;&#xa;speakers : speakers&#xa;" style="text;strokeColor=none;fillColor=none;align=left;verticalAlign=top;spacingLeft=4;spacingRight=4;overflow=hidden;rotatable=0;points=[[0,0.5],[1,0.5]];portConstraint=eastwest;" vertex="1" parent="lkKAGPi_Do3l90EPDDFt-0">
          <mxGeometry y="26" width="290" height="26" as="geometry"/>
        </mxCell>
        <mxCell id="lkKAGPi_Do3l90EPDDFt-4" value="- speakers: speakers&#xa;" style="text;strokeColor=none;fillColor=none;align=left;verticalAlign=top;spacingLeft=4;spacingRight=4;overflow=hidden;rotatable=0;points=[[0,0.5],[1,0.5]];portConstraint=eastwest;" vertex="1" parent="lkKAGPi_Do3l90EPDDFt-0">
          <mxGeometry y="52" width="290" height="26" as="geometry"/>
        </mxCell>
        <mxCell id="lkKAGPi_Do3l90EPDDFt-5" value="- connections: connections" style="text;strokeColor=none;fillColor=none;align=left;verticalAlign=top;spacingLeft=4;spacingRight=4;overflow=hidden;rotatable=0;points=[[0,0.5],[1,0.5]];portConstraint=eastwest;" vertex="1" parent="lkKAGPi_Do3l90EPDDFt-0">
          <mxGeometry y="78" width="290" height="26" as="geometry"/>
        </mxCell>
        <mxCell id="lkKAGPi_Do3l90EPDDFt-2" value="" style="line;strokeWidth=1;fillColor=none;align=left;verticalAlign=middle;spacingTop=-1;spacingLeft=3;spacingRight=3;rotatable=0;labelPosition=right;points=[];portConstraint=eastwest;" vertex="1" parent="lkKAGPi_Do3l90EPDDFt-0">
          <mxGeometry y="104" width="290" height="26" as="geometry"/>
        </mxCell>
        <mxCell id="lkKAGPi_Do3l90EPDDFt-3" value="# entertainment(speakers, stereo. Connections)()" style="text;strokeColor=none;fillColor=none;align=left;verticalAlign=top;spacingLeft=4;spacingRight=4;overflow=hidden;rotatable=0;points=[[0,0.5],[1,0.5]];portConstraint=eastwest;" vertex="1" parent="lkKAGPi_Do3l90EPDDFt-0">
          <mxGeometry y="130" width="290" height="26" as="geometry"/>
        </mxCell>
        <mxCell id="lkKAGPi_Do3l90EPDDFt-12" value="the code:&lt;br&gt;eb = new EntertainmentBuilder()&lt;br&gt;b = eb.build()&lt;br&gt;eb.setstereo(&quot;bose&quot;)&lt;br&gt;&lt;br&gt;e=eb.build()&lt;br&gt;&lt;br&gt;================&lt;br&gt;New Entertainbuilder()&lt;br&gt;&amp;nbsp; &amp;nbsp;setsterio(&quot;bose&quot;)&lt;br&gt;&amp;nbsp; &amp;nbsp;setconnections(&quot;carplay&quot;)&lt;br&gt;&amp;nbsp; &amp;nbsp;build()&lt;br&gt;&lt;br&gt;# permission - only available to the namespace it is in it&lt;br&gt;&lt;br&gt;only the builder can call&amp;nbsp;&lt;br&gt;&lt;br&gt;only entertainment builder can create entertainment" style="text;html=1;strokeColor=none;fillColor=none;align=left;verticalAlign=middle;whiteSpace=wrap;rounded=0;" vertex="1" parent="-FFPc_2GmYRrsboZQdO_-1">
          <mxGeometry x="150" y="389" width="420" height="271" as="geometry"/>
        </mxCell>
      </root>
    </mxGraphModel>
  </diagram>
</mxfile>
